<mxfile host="app.diagrams.net" modified="2024-02-27T04:59:34.313Z" agent="Mozilla/5.0 (Windows NT 10.0; Win64; x64) AppleWebKit/537.36 (KHTML, like Gecko) Chrome/121.0.0.0 Safari/537.36" version="23.1.7" etag="cHu9vjO33owStt6Sa3R4" type="github">
  <diagram name="페이지-1" id="vv1ev6eGJD5iPDYSk16y">
    <mxGraphModel>
      <root>
        <mxCell id="0" />
        <mxCell id="1" parent="0" />
      </root>
    </mxGraphModel>
  </diagram>
</mxfile>
